<?xml version="1.0" encoding="UTF-8"?>
<svg width="744" height="276" version="1.1" xmlns="http://www.w3.org/2000/svg" xmlns:cc="http://creativecommons.org/ns#" xmlns:dc="http://purl.org/dc/elements/1.1/" xmlns:rdf="http://www.w3.org/1999/02/22-rdf-syntax-ns#">
 <metadata>
  <rdf:RDF>
   <cc:Work rdf:about="">
    <dc:format>image/svg+xml</dc:format>
    <dc:type rdf:resource="http://purl.org/dc/dcmitype/StillImage"/>
    <dc:title/>
   </cc:Work>
  </rdf:RDF>
 </metadata>
 <g display="none">
  <g font-size="12.8px" stroke-width="1.0667">
   <text x="11.771678" y="593.52747" style="line-height:0%"><tspan x="11.771678 142.30501" y="593.52747" fill="#595959" font-family="Tahoma" font-size="146.67px" font-weight="bold" stroke-width="1.0667" style="line-height:1.25">wa</tspan></text>
   <text x="394.11542" y="593.52747" style="line-height:0%"><tspan x="394.11542 469.64877" y="593.52747" fill="#595959" font-family="Tahoma" font-size="146.67px" font-weight="bold" stroke-width="1.0667" style="line-height:1.25">s</tspan></text>
   <text x="512.56598" y="593.52747" style="line-height:0%"><tspan x="512.56598 572.16595 648.48596 699.04596" y="593.52747" fill="#595959" font-family="Tahoma" font-size="80px" font-weight="bold" stroke-width="1.0667" style="line-height:1.25">GmbH</tspan></text>
  </g>
  <g fill="#3d1aff">
   <path d="m269.66 497.47h-14.014c-8.86 0-17.404 5.0625-20.884 10.125l-6.6445 9.8092h-5.3789c1.582-4.4304 4.7461-17.403 14.238-30.693 5.3789-7.5938 15.188-16.453 29.743-16.453h118.02v27.212h-39.868c-3.7962 37.02-3.7962 62.333-3.7962 74.357 0 8.8594 3.1641 18.669 7.9102 23.098 4.1133 3.7962 13.289 9.1764 23.415 1.265 7.9102-6.0111 7.2767-14.871 8.2259-19.617h6.6452c-0.63281 28.794-14.238 43.982-22.781 48.728-6.3294 3.7969-18.036 6.6439-26.579 0.63282-5.0625-3.7969-11.707-12.024-15.505-23.415-4.1126-12.339-3.7969-37.652-2.2148-54.105l5.3789-50.943h-34.135z"/>
   <path d="m310.56 438.81c0 11.268-9.1341 20.403-20.404 20.403-11.268 0-20.403-9.1348-20.403-20.403 0-11.27 9.1348-20.404 20.403-20.404 11.27 0 20.404 9.1341 20.404 20.404z"/>
   <path d="m275.26 606.53c-2.5319 13.142-7.278 20.75-17.403 23.517 0 0-18.036-5.1875-19.618-13.142-2.5306-11.758 3.4805-17.292 7.2773-22.826 5.0632-7.2617 14.239-15.216 15.821-29.741l5.7227-48.983c0-5.901 4.4082-10.684 9.8464-10.684 5.4388 0 9.847 4.7832 9.847 10.684 0 0-9.6471 82.092-11.493 91.174z"/>
   <path d="m272.7 612.33c0 9.8861-8.0143 17.901-17.902 17.901-9.8861 0-17.901-8.015-17.901-17.901 0-9.8874 8.015-17.902 17.901-17.902 9.8874 0 17.902 8.0143 17.902 17.902z"/>
  </g>
 </g>
 <g>
  <g font-size="12.8px" stroke-width="1.0667">
   <text x="-0.22832203" y="175.77747" style="line-height:0%"><tspan x="-0.22832203 130.30501" y="175.77747" fill="#595959" font-family="Tahoma" font-size="146.67px" font-weight="bold" stroke-width="1.0667" style="line-height:1.25">wa</tspan></text>
   <text x="382.11542" y="175.77747" style="line-height:0%"><tspan x="382.11542 457.64877" y="175.77747" fill="#595959" font-family="Tahoma" font-size="146.67px" font-weight="bold" stroke-width="1.0667" style="line-height:1.25">s</tspan></text>
   <text x="500.56598" y="175.77747" style="line-height:0%"><tspan x="500.56598 560.16595 636.48596 687.04596" y="175.77747" fill="#595959" font-family="Tahoma" font-size="80px" font-weight="bold" stroke-width="1.0667" style="line-height:1.25">GmbH</tspan></text>
  </g>
  <g fill="#753bbd">
   <path d="m257.66 79.719h-14.014c-8.86 0-17.404 5.0625-20.884 10.125l-6.6445 9.8092h-5.3789c1.582-4.4304 4.7461-17.403 14.238-30.693 5.3789-7.5938 15.188-16.453 29.743-16.453h118.02v27.212h-39.868c-3.7962 37.02-3.7962 62.333-3.7962 74.357 0 8.8594 3.1641 18.669 7.9102 23.098 4.1133 3.7962 13.289 9.1764 23.415 1.265 7.9102-6.0111 7.2767-14.871 8.2259-19.617h6.6452c-0.63281 28.794-14.238 43.982-22.781 48.728-6.3294 3.7969-18.036 6.6439-26.579 0.63282-5.0625-3.7969-11.707-12.024-15.505-23.415-4.1126-12.339-3.7969-37.652-2.2148-54.105l5.3789-50.943h-34.135z"/>
   <path d="m298.56 21.058c0 11.268-9.1341 20.403-20.404 20.403-11.268 0-20.403-9.1348-20.403-20.403 0-11.27 9.1348-20.404 20.403-20.404 11.27 0 20.404 9.1341 20.404 20.404z"/>
   <path d="m263.26 188.78c-2.5319 13.142-7.278 20.75-17.403 23.517 0 0-18.036-5.1875-19.618-13.142-2.5306-11.758 3.4805-17.292 7.2773-22.826 5.0632-7.2617 14.239-15.216 15.821-29.741l5.7227-48.983c0-5.901 4.4082-10.684 9.8464-10.684 5.4388 0 9.847 4.7832 9.847 10.684 0 0-9.6471 82.092-11.493 91.174z"/>
   <path d="m260.7 194.58c0 9.8861-8.0143 17.901-17.902 17.901-9.8861 0-17.901-8.015-17.901-17.901 0-9.8874 8.015-17.902 17.901-17.902 9.8874 0 17.902 8.0143 17.902 17.902z"/>
  </g>
 </g>
 <g display="none">
  <text x="12.83988" y="681.02924" display="inline" font-size="12.8px" stroke-width="1.0667" style="line-height:0%"><tspan x="12.83988 43.770546 81.303215 118.7692 144.10187 160.83453 180.30054 214.96654 231.6992 282.29922 316.89853 336.36453 366.56451 394.83057 411.5632 433.31586 470.84854 496.18121 512.91388 541.17987 578.64587 616.11194 653.57794 691.11053 716.44324 741.24255" y="681.02924" fill="#595959" font-family="Calibri" font-size="66.667px" font-weight="bold" stroke-width="1.0667" style="line-height:1.25">Your IT waITs for support!</tspan></text>
 </g>
 <g>
  <text x="-3.5900393" y="274.77673" fill="#595959" font-size="12.615px" letter-spacing=".37844px" stroke-width="1.0512" style="line-height:0%"><tspan x="-3.5900393" y="274.77673" fill="#595959" font-family="Calibri" font-size="65.701px" font-weight="bold" letter-spacing=".431px" stroke-width="1.0512" style="line-height:0%">IT. SICHERHEIT. BERATU<tspan fill="#595959" font-family="Calibri" letter-spacing=".431px" stroke-width="1.0512" style="line-height:0%">NG.</tspan></tspan></text>
 </g>
 <g display="none">
  <text x="11.41293" y="741.95844" display="inline" fill="#737373" font-size="10.257px" letter-spacing=".3077px" stroke-width=".85472" style="line-height:0%"><tspan x="11.41293" y="741.95844" fill="#737373" font-family="Calibri" font-size="53.42px" font-weight="bold" letter-spacing=".35044px" stroke-width=".85472" style="line-height:0%">SACHVERSTÄNDIGE. GUTACHTER.</tspan></text>
 </g>
 <g display="none">
  <text x="10.770897" y="784.19855" display="inline" fill="#8c8c8c" fill-opacity=".96863" font-size="8.6846px" letter-spacing=".26054px" stroke-width=".72372" style="line-height:0%"><tspan x="10.770897" y="784.19855" fill="#8c8c8c" fill-opacity=".96863" font-family="Calibri" font-size="45.233px" font-weight="bold" letter-spacing=".29673px" stroke-width=".72372" style="line-height:0%">EXTERNE DATENSCHUTZBEAUFTRAGTE.</tspan></text>
 </g>
 <g display="none" stroke-width="1.0667">
  <text x="64.715492" y="710.68494" font-size="12.8px" style="line-height:0%"><tspan x="64.715492 73.179489 81.083496 85.019493 88.955482 97.547501 103.2275 107.1635 111.2915 114.90749 123.01949 131.13148 134.74748 143.35614 148.90813 153.03613 156.65213 170.57486 178.62285 182.55885 187.91086 195.95885 200.37485 203.99086 212.10284 220.21484 223.83084 227.95885 231.57486 240.03885 254.02286 262.34064 271.09262 276.07504 284.18701 288.31503 296.42703 300.55502 308.66699 312.79498 320.90701 329.01898" y="710.68494" fill="#000000" font-family="Calibri" font-size="16px" font-weight="bold" stroke-width="1.0667" style="line-height:1.25">Calibri, 50 Pt, Weite: 25 , CMYK(0,0,0,65)</tspan></text>
  <text x="5.2658749" y="481.93073" fill="#000000" font-family="Calibri" font-size="16px" font-weight="bold" style="line-height:0%"><tspan x="5.2658749 11.976748 19.880751 28.472752 37.08075 50.088749 57.992752 62.120747 65.736755 73.848747 81.960762 90.072754 93.688751 102.29707 107.84908 111.97707 115.59306 124.05706 138.04106 146.35179 155.10379 160.08618 168.1982 172.32619 180.43819 184.56618 192.67818 196.80618 204.9182 213.0302" y="481.93073" style="line-height:1.25">Tahoma, 110 Pt, CMYK(0,0,0,65),</tspan><tspan x="5.2658749" y="501.93073" style="line-height:1.25">Pantone CoolGrey 9C</tspan></text>
  <text x="565.26587" y="513.93073" font-size="12.8px" style="line-height:0%"><tspan x="565.26587 571.97675 579.8808 588.47278 597.08081 610.08875 617.9928 622.12079 625.73676 633.84875 641.96075 645.57678 654.18762 659.73962 663.86761 667.48364 675.94763 689.93164 698.24237 706.99432 711.97644 720.08844 724.21649 732.32843 736.45642 744.56842 748.69641 756.80847 764.92047" y="513.93073" fill="#000000" font-family="Calibri" font-size="16px" font-weight="bold" stroke-width="1.0667" style="line-height:1.25">Tahoma, 60 Pt, CMYK(0,0,0,65)</tspan></text>
  <text x="333.31143" y="414.49457" font-size="12.8px" style="line-height:0%"><tspan x="333.31143 341.77542 355.7594 364.07703 372.82901 377.81143 385.9234 394.03543 398.16342 406.27542 414.38739 418.51544 426.62741 430.7554 438.8674" y="414.49457" fill="#000000" font-family="Calibri" font-size="16px" font-weight="bold" stroke-width="1.0667" style="line-height:1.25">CMYK(76,90,0,0)</tspan></text>
  <text x="333.71378" y="430.11823" font-size="12.8px" style="line-height:0%"><tspan x="333.71378 342.59665 352.78864 361.76465 365.38065 370.36224 378.47424 386.58624 394.69824 398.82623 402.44226 410.55423 418.66623 422.79425 426.41025 434.52225 442.63425 450.74625 455.70593 459.32193 464.21793 467.83392 475.94592 484.05792 492.16995 501.14594 510.10434" y="430.11823" fill="#000000" font-family="Calibri" font-size="16px" font-weight="bold" stroke-width="1.0667" style="line-height:1.25">RGB (117, 59, 189) - 753BBD</tspan></text>
  <text x="333.71378" y="443.72696" font-size="12.8px" style="line-height:0%"><tspan x="333.71378 341.91696 349.82095 358.25296 363.64352 372.25153 380.84354" y="443.72696" fill="#000000" font-family="Calibri" font-size="16px" font-weight="bold" stroke-width="1.0667" style="line-height:1.25">Pantone 2665C</tspan></text>
 </g>
</svg>
