<?xml version="1.0" encoding="UTF-8"?>
<svg width="43.6mm" height="56.2mm" version="1.1" viewBox="0 0 43.6 56.2" xmlns="http://www.w3.org/2000/svg" xmlns:cc="http://creativecommons.org/ns#" xmlns:dc="http://purl.org/dc/elements/1.1/" xmlns:rdf="http://www.w3.org/1999/02/22-rdf-syntax-ns#">
 <metadata>
  <rdf:RDF>
   <cc:Work rdf:about="">
    <dc:format>image/svg+xml</dc:format>
    <dc:type rdf:resource="http://purl.org/dc/dcmitype/StillImage"/>
    <dc:title/>
   </cc:Work>
  </rdf:RDF>
 </metadata>
 <g fill="#753bbd">
  <path d="m12.453 20.947h-3.7078c-2.3442 0-4.6047 1.3395-5.5256 2.6789l-1.758 2.5954h-1.4232c0.41858-1.1722 1.2557-4.6045 3.7672-8.1208 1.4232-2.0092 4.0185-4.3532 7.8696-4.3532h31.227v7.1997h-10.549c-1.0044 9.7949-1.0044 16.492-1.0044 19.674 0 2.344 0.83716 4.9394 2.0929 6.1114 1.0883 1.0044 3.5161 2.4279 6.1951 0.33469 2.0929-1.5904 1.9253-3.9346 2.1764-5.1904h1.7582c-0.16743 7.6183-3.7672 11.637-6.0275 12.893-1.6747 1.0046-4.7721 1.7579-7.0325 0.16743-1.3395-1.0046-3.0975-3.1814-4.1022-6.1953-1.0881-3.2647-1.0046-9.9622-0.58601-14.315l1.4232-13.479h-9.0315z"/>
  <path d="m23.276 5.4266c0 2.9814-2.4167 5.3983-5.3985 5.3983-2.9814 0-5.3983-2.4169-5.3983-5.3983 0-2.9817 2.4169-5.3985 5.3983-5.3985 2.9817 0 5.3985 2.4167 5.3985 5.3985z"/>
  <path d="m13.935 49.803c-0.6699 3.4771-1.9256 5.4901-4.6045 6.2222 0 0-4.772-1.3725-5.1906-3.4771-0.66956-3.1109 0.92088-4.5751 1.9255-6.0393 1.3396-1.9213 3.7674-4.0259 4.186-7.8689l1.5141-12.96c0-1.5613 1.1663-2.8269 2.6052-2.8269 1.439 0 2.6054 1.2656 2.6054 2.8269 0 0-2.5525 21.72-3.041 24.123z"/>
  <path d="m13.257 51.337c0 2.6157-2.1205 4.7363-4.7365 4.7363-2.6157 0-4.7363-2.1206-4.7363-4.7363 0-2.616 2.1206-4.7365 4.7363-4.7365 2.616 0 4.7365 2.1205 4.7365 4.7365z"/>
 </g>
</svg>
